<svg xmlns="http://www.w3.org/2000/svg" viewBox="0 0 512 512">
    <defs>
        <linearGradient id="bubbleGrad" x1="0%" y1="0%" x2="100%" y2="100%">
            <stop offset="0%" style="stop-color:#fb7185;stop-opacity:1" />
            <stop offset="100%" style="stop-color:#be123c;stop-opacity:1" />
        </linearGradient>
    </defs>

    <path
            d="M448 128 c0-53-43-96-96-96 H160 c-53 0-96 43-96 96 v160 c0 53 43 96 96 96 h16 l-32 80 96-64 h112 c53 0 96-43 96-96 V128z"
            fill="url(#bubbleGrad)"
    />

    <path
            d="M256 320 c-60-60-90-90-90-130 c0-30 20-50 50-50 c20 0 35 15 40 15 c5 0 20-15 40-15 c30 0 50 20 50 50 c0 40-30 70-90 130 z"
            fill="white"
    />
</svg>